<svg width="22" height="29" viewBox="0 0 22 29" fill="none" xmlns="http://www.w3.org/2000/svg">
<path d="M21.7995 18.048C21.7903 20.1416 21.1607 22.1855 19.9907 23.9217C18.8207 25.6579 17.1623 27.0085 15.2255 27.8031C13.2883 28.5978 11.1595 28.8008 9.10711 28.3865C7.05511 27.9723 5.17151 26.9593 3.69431 25.4755C2.21711 23.9918 1.2127 22.1037 0.807905 20.0496C0.402705 17.9955 0.615507 15.8675 1.41871 13.9341C2.22231 12.0007 3.58031 10.3487 5.32191 9.18649C7.06311 8.02429 9.10991 7.40405 11.2035 7.40405C14.0187 7.41569 16.7143 8.54237 18.7003 10.5373C20.6863 12.5323 21.8007 15.233 21.7995 18.048ZM5.59151 18.048C5.59871 19.154 5.93311 20.2331 6.55271 21.1493C7.17231 22.0655 8.04951 22.7777 9.07351 23.196C10.0971 23.6143 11.2223 23.7201 12.3059 23.5C13.3899 23.2799 14.3843 22.7437 15.1639 21.9591C15.9435 21.1745 16.4735 20.1766 16.6863 19.0913C16.8995 18.006 16.7867 16.8819 16.3619 15.8607C15.9371 14.8396 15.2191 13.9671 14.2991 13.3533C13.3791 12.7396 12.2975 12.412 11.1915 12.412C9.70471 12.4226 8.28271 13.0214 7.23631 14.0776C6.18991 15.1337 5.60431 16.5613 5.60751 18.048H5.59151Z" fill="#FF0000" fill-opacity="0.63"/>
<path d="M21.2431 0.619873H1.19507V6.13187H21.2431V0.619873Z" fill="#FF0000" fill-opacity="0.63"/>
</svg>
