<svg width="200" height="29" viewBox="0 0 200 29" fill="none" xmlns="http://www.w3.org/2000/svg">
<path d="M9.5999 16.5241C8.13118 16.1913 6.73074 15.6082 5.4599 14.8001C4.40546 14.134 3.53198 13.2176 2.91717 12.1325C2.30236 11.0473 1.96528 9.82698 1.9359 8.5801C1.86033 7.55394 1.99912 6.5233 2.34344 5.5537C2.68776 4.58406 3.23007 3.69674 3.9359 2.94808C5.6505 1.26874 7.93674 0.299942 10.3359 0.236084C14.3359 0.236084 16.5639 1.68809 18.5599 2.99209L19.4639 3.58009L16.6039 8.2641L15.5999 7.6281C13.8359 6.4881 12.6999 5.73606 10.3119 5.73606C9.9599 5.73606 8.5879 6.0121 7.8839 6.7641C7.6479 6.9961 7.3719 7.42806 7.4119 8.33606C7.4519 9.75206 8.4319 10.5401 10.9399 11.1721C11.2519 11.2521 11.4879 11.3281 11.7199 11.4081C14.3439 12.3121 16.3839 13.5322 17.7959 15.0682C19.164 16.5336 19.9321 18.4594 19.9479 20.4642C19.8986 22.493 19.1189 24.436 17.7519 25.9361C16.9659 26.833 15.9961 27.55 14.9083 28.0387C13.8206 28.5274 12.6404 28.7762 11.4479 28.7682C9.82354 28.7864 8.20558 28.5613 6.6479 28.1001C4.14166 27.3009 1.8874 25.8615 0.10791 23.9241L4.1079 20.1481C5.03458 21.1731 6.1743 21.9828 7.44718 22.5204C8.72002 23.058 10.0951 23.3105 11.4759 23.2601C12.2392 23.2602 12.9743 22.9716 13.5337 22.4523C14.0931 21.933 14.4354 21.2213 14.4919 20.4601C14.4919 18.9641 12.8079 17.5841 9.9479 16.6001L9.8279 16.5601L9.5999 16.5241Z" fill="white"/>
<path d="M37.9126 0.660156H43.3964V28.2162H37.9126V16.7242H27.7646V28.2162H22.2766V0.660156H27.7646V11.2002H37.9126V0.660156Z" fill="white"/>
<path d="M89.8632 0.619873V6.13187H82.2632V28.2159H76.7992V6.13187H69.1592V0.619873H89.8632Z" fill="white"/>
<path d="M110.4 6.13187H97.5996V11.1999H108.176V16.7119H97.5756V22.7119H110.268V28.2199H92.0876V0.619873H110.4V6.13187Z" fill="white"/>
<path d="M134.212 28.2162L118.776 12.1162V28.2162H113.292V0.616211H115.016L130.18 16.0482V0.620203H135.66V28.2202L134.212 28.2162Z" fill="white"/>
<path d="M183.408 23.1002H172.048L169.46 28.2162H163.308L177.308 0.616211H178.908L191.872 28.2162H185.796L183.408 23.1002ZM180.824 17.6002L177.96 11.4562L174.868 17.6002H180.824Z" fill="white"/>
<path d="M166 11.2001V14.0001C166 22.6601 159.732 28.6841 152.368 28.6841H152.328C148.594 28.6045 145.04 27.0597 142.434 24.3831C139.829 21.7065 138.38 18.1128 138.4 14.3773C138.421 10.6419 139.909 7.06426 142.544 4.41642C145.179 1.76856 148.749 0.262828 152.484 0.224121H152.6C155.786 0.25575 158.866 1.36537 161.34 3.37212L157.384 7.26814C155.965 6.29042 154.288 5.75586 152.564 5.7321H152.484C150.178 5.74874 147.971 6.67014 146.337 8.29794C144.703 9.92578 143.774 12.1299 143.748 14.4361C143.715 16.7545 144.602 18.9916 146.216 20.6561C147.012 21.4866 147.967 22.148 149.024 22.6009C150.081 23.0539 151.218 23.2889 152.368 23.2921C156.368 23.2921 159.772 20.4161 160.788 16.7201H154.6V11.2001H166Z" fill="white"/>
<path d="M194.288 28.1799V0.619873H199.776V28.1799H194.288Z" fill="white"/>
<path d="M66.7997 18.0483C66.7905 20.1419 66.1609 22.1858 64.9909 23.922C63.8209 25.6582 62.1626 27.0088 60.2258 27.8034C58.2886 28.5981 56.1598 28.8011 54.1074 28.3868C52.0554 27.9726 50.1718 26.9596 48.6946 25.4758C47.2174 23.9921 46.2129 22.104 45.8081 20.0499C45.4029 17.9958 45.6158 15.8678 46.419 13.9344C47.2226 12.001 48.5805 10.349 50.3221 9.18674C52.0633 8.02454 54.1102 7.4043 56.2038 7.4043C59.019 7.41594 61.7146 8.54262 63.7006 10.5376C65.6866 12.5326 66.8009 15.2333 66.7997 18.0483ZM50.5917 18.0483C50.5989 19.1543 50.9333 20.2334 51.5529 21.1496C52.1725 22.0658 53.0498 22.778 54.0738 23.1963C55.0974 23.6146 56.2226 23.7204 57.3062 23.5003C58.3902 23.2802 59.3846 22.744 60.1642 21.9594C60.9438 21.1748 61.4738 20.1769 61.6866 19.0916C61.8998 18.0063 61.787 16.8822 61.3622 15.861C60.9374 14.8399 60.2193 13.9674 59.2993 13.3536C58.3793 12.7399 57.2978 12.4123 56.1918 12.4123C54.705 12.4229 53.283 13.0217 52.2366 14.0779C51.1902 15.134 50.6046 16.5616 50.6078 18.0483H50.5917Z" fill="#FF0000" fill-opacity="0.63"/>
<path d="M66.2433 0.619873H46.1953V6.13187H66.2433V0.619873Z" fill="#FF0000" fill-opacity="0.63"/>
</svg>
