<svg width="200" height="29" viewBox="0 0 200 29" fill="none" xmlns="http://www.w3.org/2000/svg">
<g clip-path="url(#clip0)">
<path d="M9.59981 16.5239C8.13109 16.1911 6.73065 15.608 5.45981 14.7999C4.40537 14.1338 3.53189 13.2174 2.91708 12.1323C2.30227 11.0471 1.96519 9.82683 1.93581 8.57995C1.86024 7.55379 1.99903 6.52315 2.34335 5.55355C2.68767 4.58391 3.22998 3.69659 3.93581 2.94793C5.65041 1.26859 7.93665 0.299789 10.3358 0.235931C14.3358 0.235931 16.5638 1.68794 18.5598 2.99194L19.4638 3.57994L16.6038 8.26395L15.5998 7.62795C13.8358 6.48795 12.6998 5.73591 10.3118 5.73591C9.95981 5.73591 8.58781 6.01195 7.88381 6.76395C7.64781 6.99595 7.37181 7.42791 7.41181 8.33591C7.45181 9.75191 8.43181 10.5399 10.9398 11.1719C11.2518 11.2519 11.4878 11.3279 11.7198 11.4079C14.3438 12.3119 16.3838 13.532 17.7958 15.068C19.1639 16.5334 19.932 18.4592 19.9478 20.464C19.8985 22.4928 19.1188 24.4358 17.7518 25.9359C16.9658 26.8328 15.996 27.5498 14.9082 28.0385C13.8205 28.5272 12.6403 28.776 11.4478 28.768C9.82345 28.7862 8.20549 28.5611 6.64781 28.0999C4.14157 27.3007 1.88731 25.8613 0.107819 23.9239L4.10781 20.1479C5.03449 21.1729 6.17421 21.9826 7.44709 22.5202C8.71993 23.0578 10.095 23.3103 11.4758 23.2599C12.2391 23.26 12.9742 22.9714 13.5336 22.4521C14.093 21.9328 14.4353 21.2211 14.4918 20.4599C14.4918 18.9639 12.8078 17.5839 9.94781 16.5999L9.82781 16.5599L9.59981 16.5239Z" fill="white"/>
<path d="M37.9126 0.659973H43.3964V28.216H37.9126V16.724H27.7646V28.216H22.2766V0.659973H27.7646V11.2H37.9126V0.659973Z" fill="white"/>
<path d="M89.8632 0.619904V6.1319H82.2632V28.2159H76.7992V6.1319H69.1592V0.619904H89.8632Z" fill="white"/>
<path d="M110.4 6.1319H97.5996V11.1999H108.176V16.7119H97.5756V22.7119H110.268V28.2199H92.0876V0.619904H110.4V6.1319Z" fill="white"/>
<path d="M134.212 28.216L118.776 12.116V28.216H113.292V0.616028H115.016L130.18 16.048V0.62002H135.66V28.22L134.212 28.216Z" fill="white"/>
<path d="M183.408 23.1H172.048L169.46 28.216H163.308L177.308 0.616028H178.908L191.872 28.216H185.796L183.408 23.1ZM180.824 17.6L177.96 11.456L174.868 17.6H180.824Z" fill="white"/>
<path d="M166 11.2V14C166 22.66 159.732 28.684 152.368 28.684H152.328C148.594 28.6044 145.04 27.0596 142.434 24.383C139.829 21.7064 138.38 18.1127 138.4 14.3772C138.421 10.6418 139.909 7.06417 142.544 4.41633C145.179 1.76847 148.749 0.262737 152.484 0.22403H152.6C155.786 0.255659 158.866 1.36528 161.34 3.37203L157.384 7.26805C155.965 6.29033 154.288 5.75577 152.564 5.73201H152.484C150.178 5.74865 147.971 6.67005 146.337 8.29785C144.703 9.92569 143.774 12.1298 143.748 14.436C143.715 16.7544 144.602 18.9915 146.216 20.656C147.012 21.4865 147.967 22.1479 149.024 22.6008C150.081 23.0538 151.218 23.2888 152.368 23.292C156.368 23.292 159.772 20.416 160.788 16.72H154.6V11.2H166Z" fill="white"/>
<path d="M194.288 28.1799V0.619904H199.776V28.1799H194.288Z" fill="white"/>
<path d="M66.7996 18.0481C66.7904 20.1417 66.1608 22.1856 64.9908 23.9218C63.8208 25.658 62.1624 27.0086 60.2256 27.8032C58.2884 28.5979 56.1596 28.8009 54.1072 28.3866C52.0552 27.9724 50.1716 26.9594 48.6944 25.4756C47.2172 23.9919 46.2128 22.1038 45.808 20.0497C45.4028 17.9956 45.6156 15.8676 46.4188 13.9342C47.2224 12.0008 48.5804 10.3488 50.322 9.18655C52.0632 8.02435 54.11 7.40411 56.2036 7.40411C59.0188 7.41575 61.7144 8.54243 63.7004 10.5374C65.6864 12.5324 66.8008 15.2331 66.7996 18.0481ZM50.5916 18.0481C50.5988 19.1541 50.9332 20.2332 51.5528 21.1494C52.1724 22.0656 53.0496 22.7778 54.0736 23.1961C55.0972 23.6144 56.2224 23.7202 57.306 23.5001C58.39 23.28 59.3844 22.7438 60.164 21.9592C60.9436 21.1746 61.4736 20.1767 61.6864 19.0914C61.8996 18.0061 61.7868 16.882 61.362 15.8608C60.9372 14.8397 60.2192 13.9672 59.2992 13.3534C58.3792 12.7397 57.2976 12.4121 56.1916 12.4121C54.7048 12.4227 53.2828 13.0215 52.2364 14.0777C51.19 15.1338 50.6044 16.5614 50.6076 18.0481H50.5916Z" fill="white"/>
<path d="M66.2432 0.619904H46.1952V6.1319H66.2432V0.619904Z" fill="white"/>
</g>
<defs>
<clipPath id="clip0">
<rect width="200" height="28.8" fill="white"/>
</clipPath>
</defs>
</svg>
